<svg width="181" height="38" viewBox="0 0 181 38" fill="none" xmlns="http://www.w3.org/2000/svg">
<path d="M74.4336 29H69.8193V23.4922L70.2734 13.2969L64.6777 29H61.5576L55.9766 13.2969L56.4307 23.4922V29H51.8311V7.67188H55.7275H57.8516L63.125 22.8916L68.3984 7.67188H74.4336V29ZM91.8359 22.5107H81.8164C81.9824 23.4971 82.3926 24.2832 83.0469 24.8691C83.7012 25.4453 84.541 25.7334 85.5664 25.7334C86.3281 25.7334 87.0312 25.5918 87.6758 25.3086C88.3301 25.0156 88.8867 24.5811 89.3457 24.0049L91.4697 26.4512C90.9131 27.252 90.0977 27.9258 89.0234 28.4727C87.959 29.0195 86.709 29.293 85.2734 29.293C83.6523 29.293 82.2412 28.9512 81.04 28.2676C79.8486 27.584 78.9307 26.6562 78.2861 25.4844C77.6514 24.3125 77.334 23.0186 77.334 21.6025V21.0459C77.334 19.4639 77.6318 18.0527 78.2275 16.8125C78.8232 15.5723 79.6826 14.6055 80.8057 13.9121C81.9287 13.209 83.2568 12.8574 84.79 12.8574C86.2842 12.8574 87.5586 13.1748 88.6133 13.8096C89.668 14.4443 90.4688 15.3477 91.0156 16.5195C91.5625 17.6816 91.8359 19.0537 91.8359 20.6357V22.5107ZM87.5 19.2002C87.4805 18.3408 87.2412 17.6621 86.7822 17.1641C86.333 16.666 85.6592 16.417 84.7607 16.417C83.9209 16.417 83.2617 16.6953 82.7832 17.252C82.3145 17.8086 82.0068 18.5752 81.8604 19.5518H87.5V19.2002ZM107.876 6.5V29H103.892L103.672 27.3008C102.637 28.6289 101.299 29.293 99.6582 29.293C98.3789 29.293 97.2705 28.9512 96.333 28.2676C95.4053 27.5742 94.6973 26.6221 94.209 25.4111C93.7305 24.2002 93.4912 22.8184 93.4912 21.2656V20.958C93.4912 19.3467 93.7305 17.9307 94.209 16.71C94.6973 15.4893 95.4053 14.542 96.333 13.8682C97.2705 13.1943 98.3887 12.8574 99.6875 12.8574C101.191 12.8574 102.446 13.4287 103.452 14.5713V6.5H107.876ZM100.786 25.7188C102.026 25.7188 102.915 25.1914 103.452 24.1367V18.0137C102.944 16.959 102.065 16.4316 100.815 16.4316C99.8096 16.4316 99.0723 16.8418 98.6035 17.6621C98.1445 18.4824 97.915 19.5811 97.915 20.958V21.2656C97.915 22.623 98.1396 23.707 98.5889 24.5176C99.0479 25.3184 99.7803 25.7188 100.786 25.7188ZM113.472 6.77832C114.214 6.77832 114.81 6.99316 115.259 7.42285C115.718 7.84277 115.947 8.38477 115.947 9.04883C115.947 9.71289 115.718 10.2598 115.259 10.6895C114.81 11.1094 114.214 11.3193 113.472 11.3193C112.739 11.3193 112.144 11.1094 111.685 10.6895C111.235 10.2598 111.011 9.71289 111.011 9.04883C111.011 8.38477 111.235 7.84277 111.685 7.42285C112.144 6.99316 112.739 6.77832 113.472 6.77832ZM111.274 29V13.1504H115.713V29H111.274ZM136.25 21.8516C136.152 23.3164 135.747 24.6104 135.034 25.7334C134.331 26.8564 133.345 27.7305 132.075 28.3555C130.806 28.9805 129.316 29.293 127.607 29.293C125.781 29.293 124.199 28.8779 122.861 28.0479C121.523 27.208 120.498 26.0166 119.785 24.4736C119.082 22.9209 118.73 21.0947 118.73 18.9951V17.6914C118.73 15.6016 119.097 13.7803 119.829 12.2275C120.562 10.665 121.597 9.46387 122.935 8.62402C124.272 7.78418 125.835 7.36426 127.622 7.36426C129.37 7.36426 130.869 7.68652 132.119 8.33105C133.369 8.97559 134.336 9.86914 135.02 11.0117C135.713 12.1445 136.128 13.458 136.265 14.9521H131.68C131.592 13.6631 131.235 12.7061 130.61 12.0811C129.995 11.4463 128.999 11.1289 127.622 11.1289C126.187 11.1289 125.122 11.6562 124.429 12.7109C123.735 13.7656 123.389 15.416 123.389 17.6621V18.9951C123.389 20.5088 123.53 21.7441 123.813 22.7012C124.097 23.6484 124.546 24.3564 125.161 24.8252C125.776 25.2939 126.592 25.5283 127.607 25.5283C128.926 25.5283 129.907 25.2305 130.552 24.6348C131.206 24.0293 131.577 23.1016 131.665 21.8516H136.25ZM151.675 25.0889C151.675 25.9873 151.729 26.7148 151.836 27.2715C151.943 27.8281 152.104 28.3213 152.319 28.751V29H147.881C147.686 28.6191 147.544 28.1455 147.456 27.5791C146.45 28.7217 145.127 29.293 143.486 29.293C142.49 29.293 141.582 29.0879 140.762 28.6777C139.941 28.2676 139.292 27.7012 138.813 26.9785C138.345 26.2559 138.11 25.4404 138.11 24.5322C138.11 22.8623 138.73 21.5781 139.971 20.6797C141.211 19.7715 143.037 19.3174 145.449 19.3174H147.251V18.4238C147.251 17.6914 147.065 17.125 146.694 16.7246C146.323 16.3145 145.767 16.1094 145.024 16.1094C144.351 16.1094 143.823 16.2705 143.442 16.5928C143.071 16.9053 142.886 17.3545 142.886 17.9404H138.462C138.462 16.9932 138.74 16.1338 139.297 15.3623C139.863 14.5908 140.659 13.9805 141.685 13.5312C142.72 13.082 143.911 12.8574 145.259 12.8574C146.509 12.8574 147.617 13.0674 148.584 13.4873C149.551 13.9072 150.308 14.5371 150.854 15.377C151.401 16.2168 151.675 17.2422 151.675 18.4531V25.0889ZM144.482 25.9385C145.127 25.9385 145.693 25.8018 146.182 25.5283C146.67 25.2451 147.026 24.9033 147.251 24.5029V21.8516H145.566C144.541 21.8516 143.774 22.0762 143.267 22.5254C142.769 22.9648 142.52 23.541 142.52 24.2539C142.52 24.752 142.695 25.1572 143.047 25.4697C143.408 25.7822 143.887 25.9385 144.482 25.9385ZM162.632 12.8574C162.856 12.8574 163.096 12.877 163.35 12.916C163.604 12.9453 163.809 12.9844 163.965 13.0332L163.906 17.3105C163.34 17.2324 162.817 17.1934 162.339 17.1934C160.757 17.1934 159.727 17.7158 159.248 18.7607V29H154.824V13.1504H158.984L159.116 15.0693C159.507 14.3564 160 13.8096 160.596 13.4287C161.201 13.0479 161.88 12.8574 162.632 12.8574ZM179.844 22.5107H169.824C169.99 23.4971 170.4 24.2832 171.055 24.8691C171.709 25.4453 172.549 25.7334 173.574 25.7334C174.336 25.7334 175.039 25.5918 175.684 25.3086C176.338 25.0156 176.895 24.5811 177.354 24.0049L179.478 26.4512C178.921 27.252 178.105 27.9258 177.031 28.4727C175.967 29.0195 174.717 29.293 173.281 29.293C171.66 29.293 170.249 28.9512 169.048 28.2676C167.856 27.584 166.938 26.6562 166.294 25.4844C165.659 24.3125 165.342 23.0186 165.342 21.6025V21.0459C165.342 19.4639 165.64 18.0527 166.235 16.8125C166.831 15.5723 167.69 14.6055 168.813 13.9121C169.937 13.209 171.265 12.8574 172.798 12.8574C174.292 12.8574 175.566 13.1748 176.621 13.8096C177.676 14.4443 178.477 15.3477 179.023 16.5195C179.57 17.6816 179.844 19.0537 179.844 20.6357V22.5107ZM175.508 19.2002C175.488 18.3408 175.249 17.6621 174.79 17.1641C174.341 16.666 173.667 16.417 172.769 16.417C171.929 16.417 171.27 16.6953 170.791 17.252C170.322 17.8086 170.015 18.5752 169.868 19.5518H175.508V19.2002Z" fill="#333333"/>
<path d="M21.2 20.6269C25 17.2 28 13.5654 30 10.2423V3.18077C30 1.93462 29.1 1 27.9 1H16.2C15 1 14.1 1.93462 14.1 3.18077V11.4885H6.1C4.9 11.4885 4 12.4231 4 13.6692V25.8192C4 27.0654 4.9 28 6.1 28H10.3C13.7 26.4423 17.5 23.95 21.2 20.6269Z" fill="#36A8EB"/>
<path d="M30.7403 0.0940702C33.5586 -0.209986 35.773 0.195422 37.0815 1.7157C38.8915 3.79139 38.5417 7.43496 36.5087 11.6485H37.8863C39.0941 11.6485 40 12.5607 40 13.7769V25.6351C40 26.8513 39.0941 27.7635 37.8863 27.7635H29.8339V35.8716C29.8339 37.0878 28.928 38 27.7202 38H15.9436C14.7357 38 13.8298 37.0878 13.8298 35.8716V32.9469C8.20106 35.481 3.41342 35.8202 1.24853 33.3375C-0.361939 31.6145 -0.361939 28.6753 0.946569 25.3307C0.74526 27.0537 1.04722 28.3713 1.85246 29.3848C4.97275 33.0335 14.6356 29.6888 23.3925 21.8847C32.0488 14.182 36.5782 4.95896 33.458 1.41165C32.7534 0.702182 31.8475 0.296774 30.7403 0.0940702Z" fill="#00A3C8"/>
</svg>
